<svg xmlns="http://www.w3.org/2000/svg" width="723.7129516601562px" height="914.758056640625px" style="shape-rendering:geometricPrecision;text-rendering:geometricPrecision;image-rendering:optimizeQuality;fill-rule:evenodd;clip-rule:evenodd" viewBox="0 0 723.7129516601562 914.758056640625"><path fill="none" d="M0 0h723.713v914.758H0z" style="fill:#120f3a;fill-opacity:0;pointer-events:none"/><path fill="#fff" d="M361.032 896.44c89.84-34.753 172.666-95.822 233.99-167.557 69.505-81.303 111.746-186.405 111.746-299.532V17.671H15.3v411.676c0 113.131 42.24 218.229 111.746 299.531 61.324 71.735 144.15 132.809 233.986 167.562z"/><path fill="#cd3529" d="m311.84 824.302-7.818 4.511-2.042-3.528c-.326 2.114-.9 3.84-1.735 5.139-.83 1.299-2.104 2.454-3.83 3.446-2.3 1.328-4.506 1.687-6.615 1.06-2.104-.619-3.983-2.368-5.637-5.225l-8.024-13.902 8.412-4.86 6.932 12.012c.79 1.367 1.6 2.2 2.44 2.483.838.283 1.72.159 2.636-.364a3.547 3.547 0 0 0 1.793-2.574c.196-1.131-.283-2.704-1.429-4.693l-6.068-10.502 8.37-4.832zm.25-11.327 8.95-5.167 4.846 8.389-8.95 5.167zm30.209-17.63 8.484-3.691c.523 1.908.628 3.763.326 5.55a11.442 11.442 0 0 1-2.205 5.039c-1.165 1.572-2.948 3.053-5.35 4.438-2.315 1.338-4.366 2.239-6.16 2.694a11.663 11.663 0 0 1-5.19.197 12.348 12.348 0 0 1-4.574-1.894c-1.385-.944-2.698-2.492-3.94-4.644-1.299-2.249-1.994-4.334-2.09-6.275a11.912 11.912 0 0 1 .595-4.29c.474-1.424 1.097-2.651 1.888-3.672 1.247-1.62 3.14-3.154 5.69-4.626 3.562-2.061 6.649-2.996 9.261-2.8 2.603.197 4.995 1.295 7.166 3.323l-7.271 5.589c-.786-.786-1.64-1.237-2.57-1.328-.92-.096-1.931.177-3.03.805a4.875 4.875 0 0 0-2.501 3.437c-.283 1.491.153 3.231 1.318 5.254 1.035 1.798 2.253 2.91 3.638 3.36 1.39.441 2.737.283 4.055-.489a5.129 5.129 0 0 0 2.282-2.435c.422-.987.48-2.166.178-3.542zm11.907-6.687 8.944-5.168 4.846 8.39-8.949 5.167zm27.917-12.995 7.856-5.58c.906.796 1.808 1.218 2.66 1.285.873.076 1.818-.187 2.848-.777 1.112-.647 1.846-1.395 2.19-2.229a1.845 1.845 0 0 0-.057-1.75c-.345-.608-.925-.891-1.75-.862-.58.028-1.955.44-4.098 1.217-3.192 1.17-5.479 1.875-6.864 2.09a7.334 7.334 0 0 1-4.118-.532 6.586 6.586 0 0 1-3.192-2.847c-.834-1.443-1.131-2.92-.901-4.449.23-1.529.934-2.967 2.104-4.333 1.17-1.356 2.986-2.751 5.46-4.175 2.603-1.496 4.645-2.416 6.102-2.732 1.481-.317 2.876-.298 4.175.067 1.318.355 2.66 1.078 4.027 2.19l-7.483 5.364a3.097 3.097 0 0 0-1.917-.944 4.76 4.76 0 0 0-2.761.72c-.945.54-1.534 1.111-1.779 1.696a1.769 1.769 0 0 0 .058 1.601c.306.522.815.777 1.524.729.7-.039 2.042-.49 4.007-1.319 2.958-1.294 5.292-2.051 6.965-2.277 1.688-.215 3.183-.019 4.501.619a6.77 6.77 0 0 1 3.063 2.809c.73 1.265 1.06 2.703.983 4.333-.067 1.63-.719 3.27-1.956 4.923-1.227 1.659-3.25 3.298-6.078 4.923-3.988 2.3-7.152 3.38-9.51 3.212a8.878 8.878 0 0 1-6.06-2.972zm29.801-28.833-8.49 3.782c-.498-1.572-.699-2.92-.598-4.055.11-1.132.532-2.301 1.256-3.5.522-.872 1.385-1.816 2.602-2.828 1.208-1.002 2.594-1.956 4.156-2.857 2.507-1.452 4.607-2.473 6.29-3.072a9.012 9.012 0 0 1 4.812-.441c1.07.206 2.133.757 3.202 1.649 1.07.9 1.894 1.855 2.483 2.885l5.57 9.645c.6 1.03 1.122 1.788 1.592 2.3.47.504 1.179 1.089 2.142 1.74l-7.856 4.53a8.71 8.71 0 0 1-1.357-.925 11.36 11.36 0 0 1-1.097-1.227 12.597 12.597 0 0 1-1.956 4.156c-1.131 1.453-2.69 2.752-4.645 3.888-2.603 1.495-4.933 2.042-6.975 1.61a6.615 6.615 0 0 1-4.606-3.298c-.954-1.658-1.256-3.302-.901-4.932.354-1.63 1.697-3.466 4.017-5.493 2.77-2.445 4.549-4.065 5.335-4.851a31.617 31.617 0 0 0 2.387-2.714c-.6-1.02-1.227-1.62-1.884-1.788-.666-.158-1.534.068-2.603.686-1.376.786-2.277 1.6-2.703 2.435-.331.652-.389 1.548-.173 2.675zm9.803.215a45.6 45.6 0 0 1-2.977 3.164c-1.433 1.433-2.248 2.498-2.454 3.202a2.402 2.402 0 0 0 .196 1.946 2.406 2.406 0 0 0 1.62 1.218c.696.149 1.491-.029 2.388-.542a5.956 5.956 0 0 0 2.21-2.18c.532-.916.786-1.798.747-2.642-.038-.844-.354-1.788-.963-2.838zm6.639-19.13 7.818-4.511 1.836 3.183c.355-1.975.944-3.576 1.76-4.803.824-1.218 2.041-2.301 3.661-3.231 1.74-1.012 3.298-1.496 4.664-1.462 1.376.029 2.733.47 4.085 1.309.498-2.182 1.13-3.85 1.917-4.99.786-1.132 1.975-2.153 3.566-3.083 2.34-1.347 4.569-1.711 6.692-1.088 2.114.638 4.036 2.435 5.738 5.393l7.919 13.714-8.389 4.841-7.18-12.434c-.571-.992-1.19-1.61-1.846-1.874-1.002-.432-1.917-.403-2.752.086a3.432 3.432 0 0 0-1.768 2.445c-.187 1.06.167 2.377 1.078 3.95l6.505 11.274-8.389 4.841-6.945-12.022c-.552-.963-.983-1.582-1.285-1.864a3.169 3.169 0 0 0-1.697-.786 2.852 2.852 0 0 0-1.836.383 3.36 3.36 0 0 0-1.73 2.454c-.197 1.079.177 2.455 1.13 4.108l6.434 11.15-8.389 4.841zm59.487 5.843-17.395-30.146 7.837-4.52 1.865 3.23c.292-1.984.757-3.475 1.385-4.487.853-1.347 2.013-2.444 3.494-3.302 2.92-1.678 5.825-1.875 8.715-.552 2.886 1.309 5.282 3.605 7.18 6.898 2.1 3.634 2.82 6.908 2.191 9.822-.647 2.92-2.286 5.148-4.951 6.687-1.285.738-2.584 1.198-3.902 1.376a9.726 9.726 0 0 1-3.97-.307l6.012 10.421zm-2.67-24.016c1.002 1.73 2.1 2.8 3.303 3.222a4.05 4.05 0 0 0 3.485-.336 3.514 3.514 0 0 0 1.75-2.612c.196-1.19-.264-2.733-1.367-4.664-1.02-1.77-2.114-2.867-3.278-3.298a3.643 3.643 0 0 0-3.231.206 3.892 3.892 0 0 0-1.946 2.8c-.22 1.25.2 2.813 1.284 4.682zm31.517-43.908 17.406 30.146-7.838 4.52-1.874-3.22c-.297 1.993-.767 3.499-1.395 4.5a9.98 9.98 0 0 1-3.485 3.28c-2.976 1.71-5.896 1.893-8.772.531-2.876-1.347-5.254-3.643-7.113-6.883-2.1-3.624-2.829-6.893-2.2-9.803.627-2.929 2.276-5.158 4.951-6.701 1.3-.748 2.613-1.218 3.921-1.386a9.27 9.27 0 0 1 3.97.336l-6.031-10.45zm2.666 24.015c-.983-1.71-2.09-2.78-3.298-3.211a4.04 4.04 0 0 0-3.495.326 3.48 3.48 0 0 0-1.74 2.631c-.196 1.18.264 2.733 1.357 4.636 1.03 1.788 2.123 2.895 3.279 3.331a3.633 3.633 0 0 0 3.24-.206 3.854 3.854 0 0 0 1.946-2.809c.24-1.232-.192-2.814-1.29-4.698zm12.535-7.08c-1.918-3.321-2.387-6.72-1.386-10.176 1.002-3.466 3.418-6.29 7.239-8.5 4.38-2.516 8.417-3.163 12.113-1.916 2.967 1.011 5.325 3.005 7.051 5.991 1.937 3.36 2.416 6.76 1.424 10.187-.983 3.437-3.447 6.284-7.387 8.556-3.509 2.023-6.864 2.77-10.057 2.239-3.93-.667-6.936-2.795-8.997-6.38zm8.379-4.855c1.121 1.936 2.349 3.154 3.672 3.633 1.327.48 2.583.374 3.782-.307a4.29 4.29 0 0 0 2.171-3.096c.254-1.366-.216-3.073-1.385-5.091-1.098-1.893-2.296-3.073-3.615-3.547-1.318-.475-2.545-.374-3.695.292a4.405 4.405 0 0 0-2.22 3.145c-.244 1.395.178 3.048 1.29 4.97zm14.486-22.976 7.827-4.52 2.071 3.576c-.139-1.984.02-3.5.49-4.549.469-1.04 1.293-1.898 2.473-2.584 1.236-.71 2.8-1.102 4.716-1.188l.844 7.453c-1.227.168-2.123.413-2.694.739a3.355 3.355 0 0 0-1.769 2.837c-.12 1.77.825 4.4 2.838 7.9l4.233 7.32-8.418 4.85zm14.117-19.231 8.369-4.832 3.288 5.695-8.37 4.831zm4.793 8.302 8.37-4.832 12.611 21.844-8.37 4.832zm25.43-5.249-8.485 3.782c-.503-1.572-.7-2.919-.6-4.055.102-1.136.523-2.3 1.257-3.509.513-.863 1.376-1.807 2.593-2.818 1.208-1.002 2.593-1.956 4.156-2.867 2.507-1.443 4.607-2.464 6.29-3.063 1.677-.6 3.287-.738 4.821-.44 1.07.205 2.124.747 3.193 1.648 1.069.892 1.893 1.855 2.492 2.886l5.56 9.644c.6 1.021 1.132 1.788 1.592 2.301.47.503 1.18 1.088 2.143 1.73l-7.856 4.54a9.443 9.443 0 0 1-1.357-.925 12.506 12.506 0 0 1-1.098-1.227 12.32 12.32 0 0 1-1.955 4.156 15.732 15.732 0 0 1-4.636 3.878c-2.612 1.505-4.932 2.051-6.984 1.62-2.052-.432-3.576-1.524-4.597-3.298-.963-1.659-1.265-3.303-.901-4.933.345-1.63 1.687-3.465 4.007-5.493 2.77-2.445 4.55-4.065 5.335-4.851a33.144 33.144 0 0 0 2.388-2.713c-.59-1.021-1.228-1.62-1.884-1.788-.667-.158-1.525.067-2.603.685-1.366.787-2.267 1.601-2.704 2.436-.326.651-.383 1.538-.167 2.674zm9.802.216a47.84 47.84 0 0 1-2.967 3.164c-1.443 1.433-2.258 2.497-2.464 3.202a2.402 2.402 0 0 0 .197 1.946 2.406 2.406 0 0 0 1.62 1.217c.7.15 1.496-.028 2.387-.541a6.028 6.028 0 0 0 2.21-2.181c.542-.916.786-1.798.748-2.641-.039-.844-.355-1.788-.964-2.829z"/><path fill="#318ece" d="M706.772 35.968V17.67H518.776L15.3 311.599v117.748c0 3.374.043 6.74.115 10.095l97.088-56.655c-14.28-3.044-26.892-6.936-35.534-10.713 34.48-7.027 123.72-77.645 132.808-117.48 18.081 3.414 26.887 2.872 39.72.854-.24-18.076 9.994-35.084 28.343-40.448-.628-22.49 18.733-40.816 41.632-50.015 24.375-9.788 54.996-8.336 67.57 8.552 11.748-7.205 35.97-3.092 47.68 19.293-10.1 2.407-12.856 3.648-19.538 6.644a64.83 64.83 0 0 0 6.874 2.656z"/><path fill="#cd3529" d="M706.772 217.287V168.69l-189.97 110.932 4.51 4.908c12.798.106 39.546 2.196 60.628 5.642zM131.744 504.475l-96.877 56.568a459.716 459.716 0 0 0 14.27 40.213l104.988-61.295c1.284-4.568 2.061-8.901 2.061-12.496-10.11 1.208-26.671 5.335-34.935 7.09 3.188-5.326 7.87-17.981 10.493-30.08z"/><path d="M706.772 265.615v-48.328l-124.827 72.885.402.067c14.4-1.098 43.468-8.417 57.062-11.893-9.802 28.062-36.795 50.337-60.086 60.816l.609.513zM154.125 539.957 49.138 601.25c4.055 12.976 10.751 25.67 17.577 38.056l87.64-51.166c7.257-7.339 13.887-15.263 17.645-22.19-11.145.101-19.304 2.287-31.997 3.52 5.187-6.573 11.083-18.7 14.122-29.514z"/><path fill="#318ece" d="M695.311 530.533a452.655 452.655 0 0 0 11.461-101.182V396.19L593.78 462.125c-1.16 28.238-3.279 63.806-3.437 75.9-30.472-6.678-46.64-24.212-58.495-39.762l-46.42 27.093c7.712 16.983 37.03 37.092 52.68 44.613-38.103.383-70.028 9.615-118.03 42.384-43.74 29.863-76.758 66.423-96.22 97.706 1.86-16.797 1.256-56.894-3.509-88.373L130.263 732.612c24.739 28.445 52.848 55.135 83.411 79.112z"/><path d="M214.48 264.426c-12.214 37.936-88.34 100.736-119.07 107.423 30.678 6.015 64.774 10.08 98.328 6.226 1.582 6.093 2.795 13.326-.949 19.174-8.642-.896-36.603 2.939-45.246 7.795 1.386 14.442.22 36.886-2.66 50.624l-53.764-.12c-.235-8.37-2.263-16.547-4.755-23.718l-35.42-.01c-5.823 17.913-6.432 41.181.168 62.958l34.969.057c2.809-6.864 4.017-18.66 4.86-25.194l41.158-.01c-4.113 4.99-10.949 10.896-17.276 14.548l28.473 1.103c.1 13.79-4.927 29.82-9.376 37.25 7.876-1.668 23.43-5.47 33.056-5.47 0 11.524-5.685 37.28-12.703 42.644 15.977-3.595 25.21-2.838 33.612.13-8.024 14.322-27.212 32.796-38.99 41.223 27.127-2.08 109.67 2.483 141.097 16.543 2.334-15.709 8.585-39.762 20.746-54.224 16.662 11.983 25.712 91.105 22.817 117.234 20.655-34.997 123.428-120.762 177.46-117.186-12.956-7.89-28.91-21.226-35.448-37.62-5.076-12.75-4.448-27.366 7.723-42.71 9.083-11.452 25.276-16.279 39.283-9.213 15.708 7.919 24.034 38.918 59.012 52.522.178-13.086 2.704-49.19 3.615-76.964.522-15.838 10.588-29.092 31.814-22.41-9.136-17.343-18.81-54.248-20.924-69.87-11.542-3.806-19.605-11.284-30.136-20.243 22.189-9.975 45.83-25.952 60.014-47.825-12.947 3.313-37.245 10.278-50.734 8.197-19.922-3.072-46.224-4.755-58.486-4.86l-14.903-15.018c20.234-11.74 66.875-36.594 101.675-86.518-45.97 14.189-161.89 31.043-206.149 10.862.853-3.7 6.02-11.246 23.704-12.689-11.092-13.862-28.497-7.957-38.63-5.23-23.22-31.195-96.753-7.707-95.516 36.518-14.702 5.603-23.306 12.611-28.268 29.192 10.599-6.035 20.507-8.595 29.72-7.674 2.814 26.139-63.116 26.033-73.901 22.553z"/><path d="M715.703 14.934v419.618h-10.316V14.934Zm0 419.618c0 56.602-10.488 110.37-29.408 160.31-20.037 52.886-49.527 101.45-86.049 144.523-31.047 36.618-67.166 69.271-106.87 97.237a614.987 614.987 0 0 1-130.47 69.956h-3.749a615.299 615.299 0 0 1-130.464-69.956c-39.705-27.966-75.829-60.619-106.876-97.237-36.517-43.064-66.012-91.637-86.049-144.524A450.56 450.56 0 0 1 6.365 434.552h10.31a440.393 440.393 0 0 0 28.719 156.686c19.6 51.745 48.49 99.297 84.274 141.504 30.463 35.932 65.935 67.99 104.94 95.457a604.532 604.532 0 0 0 126.419 68.054 604.772 604.772 0 0 0 126.419-68.054c39.014-27.466 74.476-59.525 104.944-95.457 35.783-42.207 64.674-89.759 84.28-141.504a440.389 440.389 0 0 0 28.712-156.686z"/><path d="M6.375 434.552V9.772h704.17v10.315H16.685v414.465Z"/></svg>