<svg xmlns="http://www.w3.org/2000/svg" width="566pt" height="566pt" fill-rule="evenodd" viewBox="0 0 566 565.99999"><path d="M17 421.899c0-156.3 126.697-283.009 283.007-283.009C456.299 138.89 583 265.599 583 421.899c0 156.282-126.701 282.991-282.993 282.991C143.697 704.89 17 578.181 17 421.899" style="fill:#ae9c68;stroke:none" transform="translate(-17 -138.89)"/><path d="M47.77 421.903c0-139.324 112.934-252.243 252.237-252.243 139.294 0 252.223 112.919 252.223 252.243 0 139.306-112.929 252.217-252.223 252.217-139.303 0-252.237-112.911-252.237-252.217" style="fill:#1f211d;stroke:none" transform="translate(-17 -138.89)"/><path d="M66.227 421.899c0 64.543 26.163 122.983 68.467 165.289 42.305 42.305 100.748 68.475 165.308 68.475 64.553 0 122.994-26.17 165.301-68.475 42.303-42.306 68.47-100.746 68.47-165.289 0-64.555-26.167-122.999-68.47-165.307-42.307-42.307-100.748-68.476-165.301-68.476-64.56 0-123.003 26.169-165.308 68.476C92.39 298.9 66.227 357.344 66.227 421.899Z" style="fill:#fff;stroke:none" transform="translate(-17 -138.89)"/><path d="M127.662 421.894c0-95.193 77.146-172.343 172.336-172.343 95.177 0 172.34 77.15 172.34 172.343 0 95.176-77.163 172.334-172.34 172.334-95.19 0-172.336-77.158-172.336-172.334" style="fill:#1f211d;stroke:none" transform="translate(-17 -138.89)"/><path d="M143.326 421.899c0-86.54 70.139-156.683 156.683-156.683 86.517 0 156.665 70.143 156.665 156.683 0 86.522-70.148 156.665-156.665 156.665-86.544 0-156.683-70.143-156.683-156.665" style="fill:#fff;stroke:none" transform="translate(-17 -138.89)"/><path d="M160.366 421.899c0-77.131 62.516-139.644 139.636-139.644 77.112 0 139.632 62.513 139.632 139.644 0 77.114-62.52 139.625-139.632 139.625-77.12 0-139.636-62.511-139.636-139.625" style="fill:#1f211d;stroke:none" transform="translate(-17 -138.89)"/><path d="M218.389 496.453V462.2h-14.821v-21.507l14.821.025v-22.826s.052-32.137 36.217-32.137c36.134 0 36.589 32.201 36.589 32.201v22.876l14.262.03a65.82 65.82 0 0 1-1.76-15.142 65.51 65.51 0 0 1 3.382-20.855l-48.106-32.336s-10.585-10.211-3.721-25.922c6.855-15.71 20.658-15.984 20.658-15.984h63.01v20.389h-60.339s-2.537-.72-4.605 2.673c-2.667 4.386 1.934 7.388 1.934 7.388l40.444 26.174c10.035-13.225 25.12-21.651 42.023-21.651 8.941 0 17.397 2.363 24.855 6.569l-10.285 17.506c-4.449-2.185-9.375-3.404-14.57-3.404-9.921 0-18.898 4.432-25.38 11.582 4.605 2.424 21.668 12.684 21.668 31.911 0 17.974-7.987 25.983-15.073 29.553 5.473 3.703 11.89 5.837 18.785 5.837 10.94 0 20.727-5.382 27.306-13.872l15.962 11.178c-10 14.211-25.667 23.378-43.268 23.378-17.718 0-33.463-9.276-43.454-23.634h-23.728v34.279h-20.853V462.2h-31.039v34.279l-20.914-.026m106.807-55.726c1.669-.651 7.693-3.526 7.693-10.967 0-8.625-6.34-11.804-6.34-11.804l-2.94-1.981a43.264 43.264 0 0 0-1.102 9.745c0 5.306.959 10.388 2.689 15.007zm-54.854.069v-19.145s-.338-14.123-15.736-14.123c-15.424 0-15.303 14.123-15.303 14.123v19.103z" style="fill:#ae9c68;stroke:none" transform="translate(-17 -138.89)"/><path d="M207.939 253.278c2.601 4.003 2.918 8 .967 11.995-1.973 3.989-5.811 7.834-11.517 11.538-3.261 2.12-6.123 3.746-8.564 4.882-2.451 1.145-4.562 1.947-6.34 2.407l-4.228-6.5c1.527-.16 3.669-.78 6.44-1.864a44.133 44.133 0 0 0 7.671-3.96c3.321-2.159 5.377-4.006 6.14-5.542.78-1.556.619-3.182-.482-4.886-.719-1.101-1.804-1.782-3.26-2.052-1.445-.264-4.74.279-9.874 1.619-4.102 1.044-7.645 1.296-10.62.735-2.996-.566-5.472-2.379-7.445-5.406-1.891-2.905-1.995-6.321-.334-10.251 1.678-3.941 5.147-7.609 10.39-11.017 2.536-1.653 4.934-2.957 7.194-3.916 2.254-.997 3.881-1.626 4.874-1.895l3.738 5.755a156.566 156.566 0 0 0-5.737 2.406 42.558 42.558 0 0 0-5.694 3.136c-2.723 1.768-4.458 3.394-5.204 4.876-.745 1.475-.78 2.746-.095 3.791.867 1.34 1.969 2.051 3.322 2.159 1.34.096 4.644-.611 9.89-2.124 4.888-1.419 8.812-1.731 11.769-.95 2.966.755 5.299 2.445 6.999 5.064M236.268 225.367l-1.405-4.085c-.559-1.626-1.509-2.632-2.858-3.031-1.353-.398-3.269-.169-5.745.685l-3.591 1.236 4.575 13.29 4.202-1.443c1.8-.625 3.178-1.532 4.137-2.719.949-1.189 1.179-2.507.685-3.933m11.569-4.67c1.244 3.603.863 6.79-1.145 9.535-2.007 2.736-5.507 4.965-10.498 6.678l-6.942 2.388 5.949 17.271-11.517 3.964-14.657-42.572 19.167-6.601c5.481-1.89 9.678-2.093 12.583-.611 2.932 1.457 4.896 3.651 5.907 6.578zM300.262 244.35l-34.208 2.996-3.925-44.866 32.739-2.857.59 6.686-20.615 1.805 1.05 12.037 16.018-1.401.598 6.778-16.022 1.4 1.11 12.665 22.076-1.929.589 6.686M342.372 249.724l-36.88-5.188.85-6.052 27.995-28.581-22.488-3.16.932-6.651 35.852 5.042-.823 5.906-28.091 28.718 23.585 3.313-.932 6.653M363.165 257.263l-11.514-3.958 14.657-42.581 11.517 3.968-14.66 42.571M406.206 260.433l3.126-17.574-14.058 10.744 10.932 6.83m6.956 24.759-10.568-6.608 2.35-11.265-15.12-9.453-9.184 6.998-8.417-5.255 39.295-28.541 9.627 6.011zM225.067 636.272l-10.329-3.962 12.285-32.014-7.051-2.705 1.943-5.074c3.278 1.006 5.984 1.227 8.143.668 2.16-.551 3.617-1.076 4.362-1.557l6.783 2.61-16.136 42.034M282.02 618.36c.399-3.278-.035-5.702-1.306-7.28-1.244-1.6-3.134-2.551-5.675-2.863-2.459-.302-4.493.161-6.084 1.388-1.596 1.206-2.594 3.469-3.001 6.783-.39 3.16.035 5.576 1.279 7.258 1.236 1.649 3.092 2.628 5.551 2.935 2.185.27 4.167-.229 5.958-1.499 1.795-1.28 2.887-3.518 3.278-6.722m11.014 7.008c-1.362 7.306-4.237 12.938-8.642 16.889-4.38 3.954-10.229 5.472-17.558 4.574-1.891-.229-3.551-.542-4.974-.94a183.465 183.465 0 0 1-3.872-1.076l.95-7.701c1.574.515 3.083.972 4.522 1.37 1.466.382 2.901.655 4.298.824 3.434.425 6.188-.169 8.269-1.778 2.068-1.613 3.374-3.985 3.907-7.129-.82.924-2.329 1.662-4.531 2.212-2.212.551-4.237.711-6.093.491-5.516-.686-9.643-2.541-12.367-5.59-2.71-3.052-3.759-7.043-3.157-11.959.633-5.091 2.845-8.933 6.652-11.539 3.812-2.601 8.794-3.525 14.956-2.762 6.583.811 11.322 2.862 14.21 6.166 2.922 3.287 4.219 7.966 3.907 14.041a21.475 21.475 0 0 1-.23 2.194c-.117.884-.195 1.453-.247 1.713zM329.736 623.837l-.151-1.214c-.738-6.023-1.731-10.099-2.975-12.228-1.228-2.143-3.253-3.027-6.067-2.684-2.823.346-4.562 1.694-5.238 4.067-.677 2.372-.637 6.564.109 12.583l.138 1.219c.746 6.019 1.735 10.059 2.966 12.11 1.236 2.034 3.244 2.88 6.015 2.542 2.822-.347 4.574-1.652 5.255-3.925.703-2.289.685-6.448-.052-12.47m12.129-.256c.871 7.107-.182 12.618-3.17 16.534-2.958 3.894-7.398 6.201-13.321 6.929-5.932.729-10.806-.434-14.644-3.491-3.815-3.083-6.162-8.178-7.042-15.284l-.442-3.639c-.837-6.794.13-12.245 2.892-16.36 2.788-4.128 7.311-6.578 13.572-7.342 6.249-.776 11.223.517 14.9 3.856 3.703 3.312 5.971 8.365 6.804 15.159zM380.943 615.706c-1.145-2.97-2.675-4.887-4.592-5.746-1.899-.889-4.007-.889-6.322 0-2.051.781-3.573 2.165-4.549 4.138-.993 1.96-.906 4.44.251 7.449 1.18 3.083 2.698 5.034 4.545 5.862 1.865.798 3.998.738 6.374-.177 2.32-.889 3.911-2.246 4.77-4.067.88-1.848.711-4.332-.477-7.459m11.092-5.056c1.847 4.788 1.67 9.236-.516 13.33-2.168 4.097-6.144 7.254-11.937 9.474-6.197 2.381-11.349 2.81-15.468 1.27-4.102-1.551-7.446-5.085-10.017-10.601-.251-.516-.524-1.197-.828-2.042a36.065 36.065 0 0 0-.585-1.635c-2.177-6.873-2.238-13.151-.169-18.828 2.059-5.688 6.465-9.83 13.225-12.422 1.782-.681 3.383-1.18 4.792-1.492 1.43-.338 2.753-.629 3.963-.88l2.779 7.249a80.334 80.334 0 0 0-4.661.951 29.201 29.201 0 0 0-4.158 1.252c-3.144 1.207-5.23 3.001-6.253 5.398-1.028 2.381-1.137 5.104-.308 8.178.273-1.201 1.271-2.557 2.957-4.075 1.696-1.526 3.408-2.619 5.139-3.287 5.199-1.999 9.726-2.281 13.598-.872 3.855 1.396 6.669 4.406 8.447 9.032z" style="fill:#1f211d;stroke:none" transform="translate(-17 -138.89)"/></svg>