<svg xmlns="http://www.w3.org/2000/svg" width="60.90686mm" height="79.375mm" viewBox="0 0 60.906861 79.375"><path d="M115.493 84.63v58.489c0 1.159 0 2.379-.212 3.558-.222 1.21-.666 2.36-1.532 3.317-.787.867-1.805 1.492-2.904 1.965-1.078.464-2.217.797-3.306 1.1-2.218.604-4.436 1.26-6.613 1.985a68.745 68.745 0 0 0-6.421 2.48c-1.704.776-3.367 1.643-4.92 2.651-1.542 1.008-2.994 2.168-4.274 3.529l-.272.302-.272-.302c-1.28-1.361-2.732-2.52-4.274-3.529-1.553-1.008-3.216-1.875-4.93-2.651-2.076-.937-4.233-1.754-6.41-2.48a124.846 124.846 0 0 0-6.614-1.986c-1.088-.302-2.228-.635-3.306-1.099-1.099-.473-2.117-1.098-2.903-1.965-.867-.958-1.31-2.107-1.533-3.317-.211-1.18-.211-2.399-.211-3.558V84.63z" style="fill:#4087bf;stroke-width:.14000872" transform="translate(-54.586 -84.63)"/><path d="M114.726 85.407H55.351v57.712c0 1.129.01 2.318.202 3.427.202 1.069.585 2.087 1.34 2.924.716.786 1.644 1.35 2.642 1.784 1.018.443 2.147.766 3.205 1.058 2.208.605 4.436 1.26 6.654 1.996 2.207.746 4.395 1.573 6.492 2.52 1.733.777 3.437 1.664 5.02 2.702 1.492.968 2.883 2.067 4.133 3.357 1.25-1.29 2.64-2.39 4.133-3.357 1.583-1.038 3.286-1.925 5.02-2.702 2.097-.947 4.284-1.774 6.492-2.52a131.139 131.139 0 0 1 6.653-1.996c1.059-.292 2.188-.615 3.206-1.058.998-.434 1.925-.998 2.641-1.784.756-.837 1.14-1.855 1.34-2.924.192-1.109.202-2.298.202-3.427z" style="fill:#fff;stroke-width:.14000872" transform="translate(-54.586 -84.63)"/><path d="M113.95 86.183H56.128v56.936c0 1.088-.01 2.208.181 3.286.393 2.127 1.603 3.306 3.538 4.143.988.434 2.047.726 3.095 1.018 2.248.615 4.486 1.28 6.694 2.016 2.227.746 4.425 1.573 6.562 2.54 1.774.797 3.508 1.704 5.131 2.763 1.32.857 2.57 1.824 3.71 2.913a25.23 25.23 0 0 1 3.71-2.913c1.623-1.059 3.356-1.966 5.13-2.762 2.138-.968 4.335-1.794 6.563-2.54a127.826 127.826 0 0 1 6.694-2.017c1.048-.292 2.106-.584 3.094-1.018 1.946-.837 3.145-2.016 3.538-4.143.192-1.078.182-2.197.182-3.286V86.183Z" style="fill:#4087bf;stroke-width:.14000872" transform="translate(-54.586 -84.63)"/><path d="M58.134 88.19h53.81v11.743h-53.81Z" style="fill:#fff;stroke-width:.14000872" transform="translate(-54.586 -84.63)"/><path d="m65.986 96.849-1.492.312-.594-1.26h-2.238l-.534 1.27-1.492-.322 3.175-5.898zm-2.59-2.107-.615-1.23-.615 1.23zM65.976 96.173l.948-1.028.998.998-.948.998zM71.289 94.742c0 .464-.06.837-.161 1.149a1.643 1.643 0 0 1-.636.827c-.342.231-.756.352-1.26.352-.09 0-.221-.01-.403-.04a1.734 1.734 0 0 1-.232-.03l-.363-1.421c.142.07.434.11.867.11.262-.03.444-.1.545-.231.08-.111.13-.303.13-.575v-3.67l1.513-.13zM86.954 94.893c0 .716-.232 1.26-.705 1.653a2.27 2.27 0 0 1-.767.424c-.302.1-.604.15-.917.15-.363.01-.696-.04-1.008-.14-.605-.202-1.028-.555-1.26-1.079a2.082 2.082 0 0 1-.171-.847v-3.81l1.522-.131v3.83c0 .323.11.555.252.696.15.141.393.232.715.222.303-.02.494-.131.615-.313.101-.14.222-.373.222-.675v-3.609l1.502-.131zM89.958 95.065l-1.32 2.086-1.351-.504 1.875-2.681-1.795-2.49 1.392-.404 1.23 1.845 1.23-1.854 1.33.473-1.774 2.41 1.814 2.701-1.4.454zM92.972 97v-5.736h3.337l.292 1.27h-2.187v.907h1.572v1.26h-1.582v1.029h2.348L96.38 97zM101.783 96.647l-1.482.464-1.724-2.662v2.51l-1.482.091v-5.786h1.744c.655 0 1.18.121 1.573.353.211.13.383.302.504.514.151.242.222.504.222.786.02.696-.283 1.22-.908 1.573zm-2.097-3.427c-.02-.494-.292-.746-.806-.746h-.303v1.532h.333c.342 0 .574-.141.695-.413.05-.131.081-.252.081-.373zM71.52 96.173l.948-1.028.998.998-.947.998zM82.035 96.849l-1.482.312-.595-1.26H77.71l-.534 1.27-1.492-.322 3.175-5.898zm-2.59-2.107-.606-1.23-.615 1.23zM106.52 96.647l-1.491.464-1.714-2.662v2.51l-1.482.091v-5.786h1.744c.655 0 1.18.121 1.573.353a1.543 1.543 0 0 1 .726 1.3c.02.696-.293 1.22-.908 1.573zm-2.096-3.427c-.02-.494-.292-.746-.807-.746h-.302v1.532h.333c.342 0 .574-.141.695-.413.05-.131.08-.252.08-.373zM106.662 97v-5.736h3.347l.282 1.27h-2.188v.907h1.573v1.26h-1.583v1.029h2.349l-.363 1.27z" style="fill:#4087bf;stroke-width:.14000872" transform="translate(-54.586 -84.63)"/><path d="M85.039 136.284c4.516 0 8.205-3.69 8.205-8.205 0-4.516-3.69-8.206-8.205-8.206-4.516 0-8.206 3.69-8.206 8.206s3.69 8.205 8.206 8.205z" style="fill:#fff;stroke-width:.14000872" transform="translate(-54.586 -84.63)"/><path d="M85.039 135.8c4.254 0 7.722-3.468 7.722-7.721 0-4.244-3.468-7.722-7.722-7.722-4.254 0-7.722 3.478-7.722 7.722 0 4.253 3.468 7.721 7.722 7.721z" style="fill:#4087bf;stroke-width:.14000872" transform="translate(-54.586 -84.63)"/><path d="m80.765 119.41-5.766-12.874 10.04 6.593 10.04-6.593-5.766 12.873a9.524 9.524 0 0 0-4.274-.998 9.524 9.524 0 0 0-4.274.998zm-.05-8.025c-.182.02-.233.131-.142.312l4.466 4.668 4.466-4.668c.09-.181.04-.292-.142-.312l-4.324 2.843zM76.37 132.353l-12.884 5.766 6.593-10.04-6.593-10.03 12.883 5.755a9.5 9.5 0 0 0-1.008 4.275c0 1.532.363 2.983 1.008 4.274zm-8.025.05c.02.182.121.232.313.141l4.657-4.465-4.657-4.466c-.192-.09-.293-.04-.313.141l2.843 4.325zM89.313 136.748l5.766 12.883-10.04-6.593-10.04 6.593 5.766-12.883a9.533 9.533 0 0 0 4.274 1.008 9.531 9.531 0 0 0 4.274-1.008zm.05 8.024c.182-.02.232-.12.142-.312l-4.466-4.658-4.466 4.658c-.09.191-.04.292.141.312l4.325-2.843zM93.708 123.804l12.883-5.756-6.592 10.03 6.592 10.04-12.883-5.766a9.533 9.533 0 0 0 1.008-4.274 9.502 9.502 0 0 0-1.008-4.274zm8.024-.05c-.02-.182-.12-.232-.312-.141l-4.657 4.465 4.657 4.466c.191.09.292.04.312-.141l-2.842-4.325zM87.882 121.556c.13.05.252.111.373.172l.08 1.078-1.32.514 1.31 2.55c.434-.17.857-.352 1.28-.544.333.535.656 1.059.988 1.583l.998-1.623c.06.141.111.272.162.413l-.948 1.543c.403.615.816 1.23 1.28 1.814l.01.01c-.01.08-.03.162-.04.242a16.302 16.302 0 0 0-1.21 1.633l.565.323c-.06.1-.111.212-.172.312l-.574-.342c-.273.433-.514.877-.746 1.33l-1.916-.645-.937 2.984c-.1.03-.192.06-.293.08l-1.733-.816-1.734.817c-.101-.02-.192-.05-.293-.08l-.937-2.985-1.916.645a21.415 21.415 0 0 0-.745-1.33l-.575.342c-.06-.1-.111-.211-.171-.312l.564-.323a16.286 16.286 0 0 0-1.21-1.633c-.01-.08-.03-.161-.04-.242l.01-.01c.464-.584.877-1.2 1.28-1.814l-.947-1.543c.05-.14.1-.272.161-.413l.998 1.623c.333-.524.655-1.048.988-1.583.423.192.847.373 1.28.545l1.31-2.55-1.32-.515.08-1.078c.122-.06.243-.121.374-.172l-.08 1.018 2.923 1.14 2.923-1.14zm-3.8 7.5v2.188l-1.674.564.887 2.793 1.744-.827 1.744.827.887-2.793-1.673-.564v-2.188zm.957-4.96-1.643-.645-1.31 2.54c.665.243 1.33.465 1.995.686v2.026h1.916v-2.026c.665-.222 1.33-.443 1.996-.685l-1.31-2.54zm6.673 5.061c-.816-1.079-1.532-2.228-2.238-3.377-.524.212-1.028.423-1.552.615-.514.192-1.038.363-1.573.544v4.053l3.387 1.139a19.05 19.05 0 0 1 1.976-2.974zm-13.347 0a19.045 19.045 0 0 1 1.976 2.974l3.377-1.14v-4.052c-.524-.181-1.048-.353-1.562-.544-.524-.192-1.028-.403-1.553-.615-.705 1.15-1.421 2.298-2.238 3.377z" style="fill:#fff;stroke-width:.14000872" transform="translate(-54.586 -84.63)"/><path d="M91.45 129.157c-.756-.998-1.411-2.056-2.056-3.115-.464.192-.928.373-1.402.545-.483.181-.957.342-1.431.493v3.76l3.085 1.039a17.465 17.465 0 0 1 1.804-2.722z" style="fill:#fff;stroke-width:.14000872" transform="translate(-54.586 -84.63)"/><path d="M84.283 129.268h1.512v2.127l1.613.544-.746 2.37-1.623-.767-1.623.766-.746-2.369 1.613-.544z" style="fill:#fff;stroke-width:.14000872" transform="translate(-54.586 -84.63)"/><path d="M78.628 129.157c.756-.998 1.41-2.056 2.056-3.115.464.192.927.373 1.401.545.484.181.958.342 1.432.493v3.76l-3.085 1.039a17.454 17.454 0 0 0-1.804-2.722z" style="fill:#fff;stroke-width:.14000872" transform="translate(-54.586 -84.63)"/><path d="m83.496 123.714 1.543.605 1.542-.605 1.12 2.167c-.636.232-1.27.433-1.906.645v1.966h-1.512v-1.966c-.635-.212-1.27-.413-1.905-.645zM80.956 122.252c.212-.151.424-.282.645-.403l-.07 1.098 1.25.484-1.13 2.178a28.069 28.069 0 0 1-1.26-.545l-.907 1.452-.786-1.27 2.198-.786z" style="fill:#fff;stroke-width:.14000872" transform="translate(-54.586 -84.63)"/><path d="M79.01 124.298a7.031 7.031 0 0 1 1.16-1.401l-.03 1.018z" style="fill:#fff;stroke-width:.14000872" transform="translate(-54.586 -84.63)"/><path d="M78.587 125.064c.08-.171.161-.332.252-.494l1.502-.504.04-1.36c.122-.111.242-.202.363-.303l-.05 1.916zM77.952 128.774a8.04 8.04 0 0 1-.04-.696c0-.735.12-1.451.322-2.116l.797 1.27a23.449 23.449 0 0 1-1.079 1.542zM78.577 131.072a7.6 7.6 0 0 1-.463-1.32c.292.353.564.726.816 1.119zM82.77 134.833a7.242 7.242 0 0 1-3.83-3.075l.403-.242c.252.423.484.867.716 1.3l1.875-.635zM86.44 135.064c-.453.091-.927.142-1.401.142a7.18 7.18 0 0 1-1.401-.142l1.4-.675zM91.138 131.758a7.242 7.242 0 0 1-3.831 3.075l.837-2.652 1.875.635c.232-.433.463-.877.715-1.3zM91.964 129.752c-.11.453-.272.897-.464 1.32l-.352-.201c.252-.393.524-.766.816-1.12zM91.843 125.962c.202.665.323 1.38.323 2.116 0 .232-.02.474-.04.696a23.502 23.502 0 0 1-1.08-1.542zM89.908 122.897c.443.413.837.887 1.159 1.401l-1.129-.383z" style="fill:#fff;stroke-width:.14000872" transform="translate(-54.586 -84.63)"/><path d="M89.333 122.403c.121.1.242.192.363.292l.04 1.371 1.503.504c.09.162.171.323.252.494l-2.107-.745z" style="fill:#fff;stroke-width:.14000872" transform="translate(-54.586 -84.63)"/><path d="M88.476 121.849c.222.12.434.252.646.403l.06 2.208 2.198.786-.787 1.27-.907-1.452c-.413.192-.837.373-1.26.545l-1.129-2.178 1.25-.483zM85.039 120.962c.927 0 1.814.17 2.63.504l.071.977-2.701 1.049-2.702-1.049.07-.977a6.945 6.945 0 0 1 2.632-.504z" style="fill:#fff;stroke-width:.14000872" transform="translate(-54.586 -84.63)"/></svg>