<svg xmlns="http://www.w3.org/2000/svg" xmlns:xlink="http://www.w3.org/1999/xlink" width="561.78973" height="669.14362" viewBox="0 0 561.78973 669.14362"><g transform="translate(-16.743 -86.43)"><path d="M271.962 179.68h51.914c11.381 0 20.693 9.313 20.693 20.694v30.833h-26.55V203.98h-40.2v121.2h40.2v-27.974h26.55v31.58c0 11.382-9.312 20.694-20.693 20.694h-51.914c-11.381 0-20.693-9.312-20.693-20.693V200.374c0-11.381 9.312-20.693 20.693-20.693z" style="fill:#160e0b;fill-rule:evenodd"/><path d="M393.756 203.98h40.2v121.2h-40.2z" style="fill:none"/><path d="M387.9 179.68h51.913c11.381 0 20.693 9.313 20.693 20.694v128.414c0 11.38-9.312 20.693-20.693 20.693H387.9c-11.381 0-20.693-9.312-20.693-20.693V200.374c0-11.381 9.312-20.693 20.693-20.693z" style="fill:none"/><path d="M200.665 302.57v22.61h-40.2v-27.427h-26.55v31.035c0 11.38 9.312 20.693 20.693 20.693h51.914c11.38 0 20.693-9.312 20.693-20.693V302.12c0-4.631-2.743-10.272-5.083-12.57l-61.667-60.555v-25.015h40.2v28.126h26.55v-31.733c0-11.381-9.312-20.693-20.693-20.693h-51.914c-11.38 0-20.693 9.312-20.693 20.693v31.51c0 3.206 2.004 6.787 4.285 9.038zM367.206 200.374v128.414c0 11.38 9.312 20.693 20.693 20.693h51.914c11.381 0 20.693-9.312 20.693-20.693V200.374c0-11.381-9.312-20.693-20.693-20.693H387.9c-11.381 0-20.693 9.312-20.693 20.693zm26.55 124.807v-121.2h40.2v121.2zM276.832 144.014l-2.515-.001c-.604 0-1.25-.368-1.251-1.044l-.003-3.592c0-.726.513-1.149 1.21-1.147l7.877.024c.922.003 1.495.46 1.495 1.421v13.71c0 3.253-2.663 5.916-5.915 5.916h-9.288c-3.255 0-5.915-2.66-5.915-5.915v-28.989c0-3.255 2.66-5.915 5.915-5.915h8.99c3.417 0 6.222 2.795 6.213 6.215l-.016 6.262c-.003 1.122-.37 1.635-1.608 1.636h-3.544c-1.328 0-1.63-.655-1.631-1.831l-.004-4.868a.615.615 0 0 0-.61-.61h-6.292a.614.614 0 0 0-.61.609v25.993c0 .334.276.61.61.61h6.292c.333 0 .61-.275.61-.609zm42.41-1.862v10.226a.586.586 0 0 0 .304.158h10.523c1.062 0 2.082 1.058 2.088 2.112l.016 2.907c.006 1.022-.956 1.784-1.932 1.784H313.95c-.838 0-1.511-.846-1.511-1.647v-37.454c0-.88.842-1.717 1.722-1.717h16.57c.741 0 1.392.678 1.392 1.413v3.988c0 .733-.683 1.402-1.413 1.402l-11.468-.002-.006 10.12c.03.084.211.219.295.227l7.832.032c.885.004 1.522.594 1.52 1.492l-.003 3.618c-.001.697-.631 1.34-1.332 1.34zM175.95 148.42h-7.937v9.507c0 .705-.593 1.412-1.323 1.412h-4.062a1.42 1.42 0 0 1-1.418-1.417v-33.165c0-3.12 3.116-6.237 6.236-6.237h9.071c3.12 0 6.237 3.117 6.237 6.237v33.165a1.42 1.42 0 0 1-1.418 1.417h-4.005c-.692 0-1.38-.58-1.38-1.295zm-7.937-5.955h7.937V125.89a.571.571 0 0 0-.566-.567h-6.804a.57.57 0 0 0-.567.567zm50.74-4.93v20.424c0 .688-.567 1.38-1.283 1.38h-4.102a1.42 1.42 0 0 1-1.418-1.417v-37.984a1.42 1.42 0 0 1 1.418-1.418h3.824c.795 0 1.665.59 1.966 1.325l7.533 18.356v-18.28c0-.739.692-1.4 1.424-1.4h3.961c.78 0 1.418.637 1.418 1.417v37.984c0 .78-.638 1.417-1.418 1.417h-3.855c-.73 0-1.46-.51-1.717-1.192zm200.977-3.519c0 .367.56.932.927.932l7.778.003c4.23.002 6.035 3.416 6.035 7.163v10.989c0 3.425-2.811 6.236-6.236 6.236h-9.071c-3.427 0-6.246-2.807-6.236-6.239l.015-5.282c.005-1.637.908-2.468 2.527-2.467h2.215c1.01.002 2.05.95 2.05 1.979l-.004 4.64c0 .309.258.566.567.566h6.803a.57.57 0 0 0 .567-.567v-8.806c0-.372-.67-.845-1.025-.845h-7.604c-3.569-.076-6.111-2.637-6.111-6.201v-11.36c0-3.432 2.804-6.237 6.236-6.237h9.07c3.429 0 6.243 2.808 6.237 6.238l-.008 4.8c-.003 1.418-.863 2.476-2.31 2.478l-2.388.003c-1.04 0-2.097-.992-2.097-2.044v-4.105a.571.571 0 0 0-.567-.567h-6.803a.572.572 0 0 0-.567.567zm-41.192 13.407 5.513 10.092c.497.908-.411 1.824-1.313 1.824h-5.669l-5.015-10.139c-.093-.189-.392-.944-.655-.944h-3.118v11.083h-5.386a1.42 1.42 0 0 1-1.417-1.417v-37.984a1.42 1.42 0 0 1 1.417-1.417h13.607c3.12 0 6.52 3.399 6.52 6.52v16.624c0 2.603-2.225 4.669-4.484 5.758zm-10.257-22.1v17.166h7.37a.57.57 0 0 0 .567-.567v-16.031a.57.57 0 0 0-.567-.567z" style="fill:#160e0b;fill-rule:evenodd"/><path d="M268.442 119.332h8.99c2.95 0 5.37 2.415 5.363 5.363l-.016 6.261c0 .47.11.788-.758.788h-3.543c-.807 0-.781-.266-.782-.98l-.004-4.87c0-.803-.658-1.46-1.46-1.46h-6.292c-.803 0-1.46.658-1.46 1.46v25.994c0 .802.656 1.46 1.46 1.46h6.292c.804 0 1.461-.657 1.46-1.46l-.011-8.478c0-.23-.029-.246-.258-.246l-3.106-.002c-.132 0-.401-.061-.401-.195l-.003-3.591c0-.237.12-.296.357-.296l7.877.023c.469.001.647.104.647.571v13.711c0 2.783-2.282 5.065-5.064 5.065h-9.289c-2.784 0-5.064-2.28-5.064-5.065v-28.989c0-2.785 2.279-5.064 5.064-5.064zM318.391 141.852v10.597c0 .495.66.938 1.155.938h10.523c.59 0 1.234.677 1.238 1.265l.015 2.908c.003.524-.556.928-1.081.928l-16.291.001c-.345 0-.661-.452-.661-.797v-37.454c0-.41.462-.867.872-.867h16.57c.269 0 .542.295.542.563v3.988c0 .262-.301.551-.563.551h-11.604c-.312 0-.715.297-.715.61v10.405c0 .51.625 1.03 1.136 1.032l7.833.031c.423.001.674.22.673.642l-.004 3.617c0 .229-.252.491-.48.491h-8.636c-.252 0-.522.3-.522.551zM167.446 119.37h9.071c2.65 0 5.386 2.738 5.386 5.387v33.165a.57.57 0 0 1-.567.567h-4.005c-.23 0-.53-.214-.53-.445v-9.908a.57.57 0 0 0-.567-.567h-8.504a.57.57 0 0 0-.567.567v9.79c0 .244-.229.563-.473.563h-4.062a.57.57 0 0 1-.567-.567v-33.165c0-2.65 2.735-5.386 5.385-5.386zm1.134 5.103h6.803c.78 0 1.418.639 1.418 1.418v16.857a.57.57 0 0 1-.567.567h-8.504a.57.57 0 0 1-.567-.567V125.89c0-.78.638-1.418 1.417-1.418zM217.903 132.857v25.102c0 .228-.206.53-.433.53h-4.102a.57.57 0 0 1-.567-.567v-37.984c0-.312.255-.567.567-.567h3.824c.45 0 1.01.382 1.18.797l9.169 22.345V119.92c0-.265.31-.55.574-.55h3.961a.57.57 0 0 1 .567.567v37.984c0 .31-.257.567-.567.567h-3.855c-.374 0-.79-.291-.921-.641zM418.88 134.016c0 .84.937 1.783 1.777 1.783l7.777.003c4.125.032 5.186 3.627 5.186 6.312v10.989c0 2.955-2.43 5.386-5.386 5.386h-9.071c-2.956 0-5.394-2.424-5.386-5.386l.015-5.282c.003-1.142.505-1.62 1.677-1.62l2.214.001c.55 0 1.2.579 1.2 1.127l-.003 4.64c0 .778.638 1.417 1.417 1.417h6.803c.78 0 1.417-.638 1.417-1.417V143.163c0-.843-1.033-1.695-1.875-1.695h-7.586c-3.75-.08-5.279-2.946-5.279-5.351v-11.36c0-2.963 2.424-5.387 5.386-5.387h9.07c2.963 0 5.392 2.43 5.387 5.386l-.008 4.8c-.002 1.193-.716 1.629-1.46 1.63l-2.389.003c-.575 0-1.245-.62-1.245-1.194v-4.105c0-.78-.64-1.417-1.418-1.417h-6.803c-.779 0-1.417.638-1.417 1.417zM362.895 119.37h13.607c2.65 0 5.669 3.022 5.669 5.67v16.625c0 2.813-3.109 4.71-4.828 5.344l5.962 10.913c.149.273-.257.567-.567.567h-5.14l-4.781-9.666c-.343-.691-.638-1.417-1.418-1.417h-3.401a.569.569 0 0 0-.567.567v10.516h-4.536a.57.57 0 0 1-.567-.567v-37.984c0-.312.256-.567.567-.567zm5.103 5.103h7.653c.78 0 1.418.638 1.418 1.418v16.031c0 .78-.638 1.418-1.418 1.418h-7.653a.569.569 0 0 1-.567-.567V125.04c0-.312.255-.567.567-.567z" style="fill:#160e0b;fill-rule:evenodd"/><path d="M297.937 455.616c-1.655 0-8.17 8.64-8.752 16.124-1.073 13.796 1.848 26.205 4.97 38.25.4 1.548.222 3.066-.388 4.483-4.317-11.622-11.895-23.45-20.5-32.86-2.781 3.75-5.94 7.375-9.47 10.875 9.865 8.708 19.525 15.958 26.525 26.46-2.037 1.574-4.757 2.646-7.465 3.23-.75.161-.424.891.07.892 8.69.01 13.193 3.2 14.153 9.575.06.392.199.67.35.857.18.218.377.308.48.305.169 0 .775-.09.906-1.162.966-7.89 5.462-9.565 14.152-9.575.494 0 .821-.73.07-.892-2.722-.587-5.327-1.786-7.369-3.373 5.278-9.097 15.59-16.807 26.375-26.316-3.53-3.501-6.688-7.125-9.468-10.875-10.127 12.468-16.759 23.31-20.475 32.793-.915-1.258-1.41-2.847-1.016-4.37 3.121-12.046 6.698-24.5 5.626-38.297-.582-7.483-7.12-16.124-8.774-16.124z" style="fill:#bc9669;fill-rule:evenodd"/><path d="m134.966 86.725 325.69-.187 117.75 165.492-280.698 503.322L16.871 251.985Z" style="fill:none;stroke:#000;stroke-width:.216;stroke-linecap:butt;stroke-linejoin:miter;stroke-dasharray:none"/><path d="m140.397 97.457 313.082.189 106.672 154.259-262.47 497.771-263.387-497.77Z" style="fill:none;stroke:#fff;stroke-width:.216;stroke-linecap:butt;stroke-linejoin:miter;stroke-dasharray:none"/><path d="m140.845 98.308 312.188.188 106.125 153.468-261.479 495.892L35.286 251.963Z" style="fill:none;stroke:#000;stroke-width:.216;stroke-linecap:butt;stroke-linejoin:miter;stroke-dasharray:none"/><path d="m124.422 160.999-71.813 90.843 245.157 477.469 245.11-477.376-72.206-90.911 48.91 90.911-221.858 466.643-222.28-466.595Z" style="fill:#000;fill-rule:evenodd;stroke:#000;stroke-width:.216;stroke-linecap:butt;stroke-linejoin:miter;stroke-dasharray:none"/><path d="M279.303 432.407c6-6.483 15.296-7.376 18.421-7.38 3.155-.002 13.219 1.44 18.28 7.38m0 176.107h-36.701" style="fill:none;stroke:#000;stroke-width:.216;stroke-linecap:butt;stroke-linejoin:miter;stroke-dasharray:none"/><path d="M279.303 375.737v56.67c6-6.483 15.296-7.376 18.421-7.38 3.155-.002 13.219 1.44 18.28 7.38v-56.67a.569.569 0 0 1-.566-.567H279.87a.569.569 0 0 1-.567.567z" style="fill:#160e0b;fill-rule:evenodd"/><path d="m169.454 449.327-.283-.593.283-72.997a.568.568 0 0 0-.567-.567h-34.76L75.44 251.983l48.98-90.984-71.812 90.843 245.157 477.469 245.11-477.376-72.206-90.912 48.91 90.912-58.59 123.235-.035.071-34.534-.071a.565.565 0 0 0-.567.567l1.404 70.381-1.404 2.953-36.57 76.921-.145-150.255a.569.569 0 0 0-.567-.567h-35.568a.569.569 0 0 0-.567.567l-.147 228.065-36.285 76.32v-98.537c0-11.054-9.083-17.282-18.388-17.063-9.304.22-18.288 6.92-18.29 16.235l-.023 99.159-.001-.001-36.715-77.07V375.737a.569.569 0 0 0-.567-.567h-35.568a.569.569 0 0 0-.567.567l.146 150.372-.146-.307z" style="fill:#160e0b;fill-rule:evenodd"/><path d="M393.756 203.98v121.2h40.2v-121.2Z" style="fill:#fff;fill-rule:evenodd"/><defs><linearGradient id="a"><stop offset="0.0000%" stop-color="#ae916d" stop-opacity="1.0000"/><stop offset="12.0000%" stop-color="#fff" stop-opacity="1.0000"/><stop offset="0.0000%" stop-color="#d6d6d6" stop-opacity="1.0000"/><stop offset="83887360.0000%" stop-color="#fff" stop-opacity="1.0000"/></linearGradient><linearGradient xlink:href="#a" id="b" x1="18.411854" x2="18.411854" y1="79.294205" y2="692.12543" gradientTransform="scale(.9163 1.09135)" gradientUnits="userSpaceOnUse"/></defs><path d="M297.68 747.856 35.285 251.963 140.845 98.308l312.188.188 106.125 153.468ZM460.654 86.538l-325.689.187-118.095 165.26 280.837 503.367L578.405 252.03Z" style="fill:url(#b)"/><path d="M160.465 325.18h40.2v-22.61L138.2 240.923c-2.281-2.251-4.285-5.832-4.285-9.037v-31.511c0-11.38 9.312-20.693 20.693-20.693h51.914c11.38 0 20.693 9.312 20.693 20.693v31.733h-26.55v-28.126h-40.2v25.015l61.667 60.555c2.34 2.298 5.083 7.939 5.083 12.57v26.667c0 11.38-9.312 20.693-20.693 20.693h-51.914c-11.381 0-20.693-9.312-20.693-20.693v-31.035h26.55zM453.033 98.497l-312.188-.188L35.286 251.963 297.68 747.856l261.479-495.892ZM251.269 328.788V200.374c0-11.381 9.312-20.693 20.693-20.693h51.914c11.381 0 20.693 9.312 20.693 20.693v30.833h-26.55V203.98h-40.2v121.2h40.2v-27.973h26.55v31.58c0 11.382-9.312 20.694-20.693 20.694h-51.914c-11.381 0-20.693-9.312-20.693-20.693zm28.035 351.128zM75.44 251.983l58.685 123.187h34.76c.312 0 .569.255.568.567l-.283 72.997.283.593 36.432 76.475.146.307-.146-150.372c0-.312.255-.567.567-.567h35.568c.311 0 .567.255.567.567v227.107l36.716 77.072.016-71.402.007-27.757c.002-9.316 8.987-16.015 18.29-16.235 9.305-.22 18.388 6.009 18.388 17.063v98.537l36.285-76.32.147-228.065c0-.312.256-.567.567-.567h35.568c.312 0 .567.255.567.567l.145 150.255 37.975-79.874-1.404-70.381a.565.565 0 0 1 .567-.567l34.534.071 58.624-123.306-48.91-90.912 72.207 90.912-245.11 477.376L52.608 251.842 124.422 161Zm142.029-92.644h-4.102a1.42 1.42 0 0 1-1.418-1.417v-37.984a1.42 1.42 0 0 1 1.418-1.417h3.824c.795 0 1.665.59 1.966 1.324l7.533 18.356v-18.28c0-.739.692-1.4 1.424-1.4h3.961c.78 0 1.418.637 1.418 1.417v37.984c0 .78-.638 1.417-1.418 1.417h-3.855c-.73 0-1.46-.51-1.717-1.192l-7.75-20.612v20.424c0 .688-.568 1.38-1.285 1.38zm-41.52-10.92h-7.937v9.508c0 .705-.593 1.412-1.323 1.412h-4.062a1.42 1.42 0 0 1-1.418-1.417v-33.165c0-3.12 3.116-6.237 6.236-6.237h9.071c3.12 0 6.237 3.117 6.237 6.237v33.165a1.42 1.42 0 0 1-1.418 1.417h-4.005c-.692 0-1.38-.58-1.38-1.295zm86.577 4.966v-28.988c0-3.255 2.66-5.915 5.915-5.915h8.99c3.417 0 6.222 2.795 6.213 6.215l-.015 6.261c-.003 1.123-.371 1.636-1.609 1.636h-3.543c-1.329.001-1.631-.654-1.632-1.83l-.004-4.869a.615.615 0 0 0-.61-.61h-6.292a.614.614 0 0 0-.61.61v25.993c0 .334.276.61.61.61h6.292c.333 0 .61-.275.61-.61l-.01-7.874-2.516-.001c-.603 0-1.25-.368-1.25-1.044l-.004-3.592c0-.726.513-1.149 1.211-1.147l7.877.024c.922.003 1.495.46 1.495 1.421v13.71c0 3.253-2.663 5.916-5.915 5.916h-9.289c-3.254 0-5.914-2.66-5.914-5.915zm49.912 4.307v-37.454c0-.88.842-1.717 1.722-1.717h16.57c.741 0 1.392.678 1.392 1.413v3.988c0 .733-.683 1.402-1.413 1.402l-11.468-.002-.006 10.12c.03.084.211.219.295.227l7.832.032c.885.004 1.522.594 1.52 1.492l-.003 3.618c-.001.697-.631 1.34-1.332 1.34h-8.306v10.227a.586.586 0 0 0 .303.158h10.523c1.063 0 2.083 1.058 2.089 2.112l.016 2.907c.006 1.022-.956 1.784-1.932 1.784h-16.292c-.837 0-1.51-.846-1.51-1.647zm106.599-15.374c-3.569-.075-6.111-2.637-6.111-6.2v-11.361c0-3.432 2.804-6.236 6.236-6.236h9.07c3.429 0 6.243 2.807 6.237 6.237l-.008 4.8c-.003 1.419-.863 2.476-2.31 2.478l-2.388.003c-1.04.001-2.097-.991-2.097-2.044v-4.104a.571.571 0 0 0-.567-.567h-6.803a.572.572 0 0 0-.567.567v8.125c0 .367.56.932.927.932l7.778.003c4.23.002 6.035 3.416 6.035 7.163v10.989c0 3.425-2.81 6.236-6.236 6.236h-9.07c-3.428 0-6.247-2.807-6.237-6.239l.015-5.282c.005-1.638.908-2.468 2.528-2.467h2.214c1.01.001 2.05.95 2.05 1.978l-.003 4.64c0 .31.258.567.567.567h6.802a.57.57 0 0 0 .567-.567v-8.806c0-.372-.67-.845-1.025-.845zm-41.969 17.021-5.015-10.139c-.093-.189-.392-.944-.655-.944h-3.118v11.083h-5.386a1.42 1.42 0 0 1-1.417-1.417v-37.984a1.42 1.42 0 0 1 1.417-1.417h13.607c3.12 0 6.52 3.399 6.52 6.52v16.624c0 2.603-2.225 4.669-4.484 5.758l5.513 10.092c.496.908-.411 1.824-1.313 1.824zm-9.863 169.449V200.374c0-11.381 9.312-20.693 20.693-20.693h51.914c11.381 0 20.693 9.312 20.693 20.693v128.414c0 11.38-9.312 20.693-20.693 20.693H387.9c-11.381 0-20.693-9.312-20.693-20.693zM279.87 375.17h35.568c0 .312.255.567.567.567v56.67c-5.063-5.94-15.126-7.383-18.281-7.38-3.125.004-12.42.897-18.421 7.38v-56.67a.569.569 0 0 0 .567-.567zm-16.073 117.318c3.53-3.5 6.689-7.124 9.47-10.874 8.605 9.408 16.184 21.237 20.5 32.859.61-1.417.788-2.935.387-4.483-3.12-12.045-6.041-24.454-4.97-38.25.583-7.483 7.098-16.124 8.753-16.124 1.654 0 8.192 8.64 8.774 16.124 1.072 13.796-2.505 26.251-5.626 38.297-.394 1.523.1 3.112 1.016 4.37 3.716-9.484 10.348-20.325 20.475-32.793 2.78 3.75 5.938 7.374 9.468 10.874-10.785 9.51-21.097 17.22-26.375 26.317 2.042 1.587 4.647 2.786 7.37 3.373.75.161.423.891-.07.892-8.691.01-13.187 1.685-14.153 9.575-.131 1.071-.737 1.162-.905 1.162-.104.003-.3-.087-.48-.305-.152-.186-.292-.465-.351-.857-.96-6.375-5.462-9.565-14.153-9.575-.494 0-.82-.73-.07-.892 2.708-.584 5.428-1.656 7.465-3.23-7-10.502-16.66-17.752-26.525-26.46z" style="fill:#fff;fill-rule:evenodd"/><path d="M168.013 142.464h7.937v-16.573a.571.571 0 0 0-.566-.567h-6.804a.57.57 0 0 0-.567.567zM368.281 125.324v17.165h7.37a.57.57 0 0 0 .567-.567v-16.031a.57.57 0 0 0-.567-.567z" style="fill:#fff;fill-rule:evenodd"/></g></svg>